<svg width="60" height="16" viewBox="0 0 60 16" fill="none" xmlns="http://www.w3.org/2000/svg">
<path d="M1 7.99963C1 4.13364 4.13401 0.999634 8 0.999634C11.866 0.999634 15 4.13364 15 7.99963C15 11.8656 11.866 14.9996 8 14.9996C4.13401 14.9996 1 11.8656 1 7.99963Z" stroke="white" stroke-width="2"/>
<path d="M23 7.99963C23 4.13364 26.134 0.999634 30 0.999634C33.866 0.999634 37 4.13364 37 7.99963C37 11.8656 33.866 14.9996 30 14.9996C26.134 14.9996 23 11.8656 23 7.99963Z" stroke="white" stroke-width="2"/>
<path d="M45 7.99963C45 4.13364 48.134 0.999634 52 0.999634C55.866 0.999634 59 4.13364 59 7.99963C59 11.8656 55.866 14.9996 52 14.9996C48.134 14.9996 45 11.8656 45 7.99963Z" stroke="white" stroke-width="2"/>
</svg>
