<svg width="92" height="120" viewBox="0 0 92 120" fill="none" xmlns="http://www.w3.org/2000/svg">
<path fill-rule="evenodd" clip-rule="evenodd" d="M8 0V8H0V80H4V84H12V88H20V92H28V96H36V100H44V104H52V108H60V112H68V116H76V120H84V48H88V120H92V32H88V28H84V24H76V20H68V16H52V20H48V16H44V12H40V8H32V4H24V0H8ZM80 44H84V48H80V44ZM72 40H80V44H72V40ZM64 36H72V40H64V36ZM56 32H64V36H56V32ZM48 28H56V32H48V28ZM40 24H48V28H40V24ZM32 20H40V24H32V20ZM24 16H32V20H24V16ZM16 12H24V16H16V12ZM16 12V8H8V12H16Z" fill="#FF5C5C"/>
</svg>
