<svg width="128" height="128" viewBox="0 0 128 128" fill="none" xmlns="http://www.w3.org/2000/svg">
<path d="M72 4H4V124H96V28H72V4Z" fill="#4D7BFF"/>
<path d="M80 4H76V24H96V20H92V16H88V12H84V8H80V4Z" fill="#4D7BFF"/>
<path d="M62 56V52H64V44H60V48H58V56H48V52H50V44H46V48H44V56H30V60H42V62H40V68H30V72H38V76H36V84H40V82V80H42V72H52V74V76H50V84H54V80H56V72H70V68H58V66H60V60H70V56H62ZM56 62H54V68H44V66H46V60H56V62Z" fill="black"/>
<path fill-rule="evenodd" clip-rule="evenodd" d="M0 0H80V4H76V24H96V20H100V104H112V108H120V112H128V128H0V0ZM96 28H72V4H4V124H96V28Z" fill="black"/>
<path d="M92 16H96V20H92V16Z" fill="black"/>
<path d="M88 12H92V16H88V12Z" fill="black"/>
<path d="M84 8H88V12H84V8Z" fill="black"/>
<path d="M84 8V4H80V8H84Z" fill="black"/>
</svg>
