<svg width="24" height="24" viewBox="0 0 24 24" fill="none" xmlns="http://www.w3.org/2000/svg">
<path fill-rule="evenodd" clip-rule="evenodd" d="M9 11.9996H8V10.9996H7V4.99963H8V3.99963H9V2.99963H15V3.99963H16V4.99963H17V10.9996H16V11.9996H15V12.9996H9V11.9996ZM10 6.99963H9V8.99963H10V9.99963H11V10.9996H13V9.99963H14V8.99963H15V6.99963H14V5.99963H13V4.99963H11V5.99963H10V6.99963ZM19 14.9996V15.9996H20V20.9996H18V17.9996H17V16.9996H16V15.9996H8V16.9996H7V17.9996H6V20.9996H4V15.9996H5V14.9996H6V13.9996H18V14.9996H19Z" fill="white"/>
</svg>
